# Blender v2.81 (sub 16) OBJ File: ''
# www.blender.org
mtllib asteroid.mtl
o cube1
v -0.194324 -0.555556 0.888084
v 0.296243 -0.750000 1.059155
v 0.250275 -0.000000 1.397427
v -0.288144 -0.000000 1.186262
v -0.750000 -0.750000 0.001527
v 0.000000 -1.000000 0.001527
v -1.299674 0.010722 0.088294
v -0.194324 0.555555 0.888084
v 0.296243 0.750000 1.059155
v 0.671434 0.555555 0.699778
v 0.817601 0.065037 0.875185
v 0.671434 -0.555556 0.699777
v 0.701389 -0.701389 -0.192348
v 0.905041 0.027379 0.891178
v -0.555556 -0.555555 -0.773973
v -0.750000 0.000000 -1.045398
v -0.555556 0.555556 -0.773973
v -0.652778 0.652778 -0.386223
v 0.000000 1.000000 0.001527
v 0.000000 0.715845 -0.997721
v 0.669132 0.676002 -0.864608
v 0.729443 0.846595 -0.119242
v 0.875000 0.000000 -0.521936
v 0.897050 0.002172 -1.163691
v 0.555556 -0.555555 -0.773973
v 0.000000 -0.750000 -1.045398
v -0.615709 0.807698 0.560381
v -0.937482 0.925401 0.035082
v -0.949625 0.220628 0.219332
v -0.472162 0.652778 0.444806
v -0.074487 1.223461 0.010810
v -0.815009 0.819452 -0.459312
v 1.193892 0.000000 -0.401200
v 0.000000 0.000000 -1.394373
v 1.024550 0.760753 0.015446
v 0.652816 0.701539 0.033849
vt 0.213888 0.270557
vt 0.325716 0.370285
vt 0.260537 0.420117
vt 1.213888 0.270557
vt 0.992255 0.151677
vt 1.283824 0.195821
vt 0.076791 0.578427
vt 0.041512 0.349913
vt 0.301423 0.571672
vt 0.375605 0.541656
vt 0.426469 0.321865
vt 0.442325 0.468807
vt 1.395385 0.149953
vt 0.724906 0.138464
vt 0.395385 0.149953
vt 0.283824 0.195821
vt 0.931840 0.418774
vt 1.076791 0.578427
vt 0.914286 0.575891
vt 0.971128 0.807236
vt 0.776900 0.692829
vt 0.891857 0.729528
vt 0.690174 0.584684
vt 0.678003 0.361087
vt 0.728093 0.430510
vt 0.574335 0.600023
vt 0.780766 0.288977
vt 0.861656 0.348742
vt 0.238280 0.730128
vt 0.108116 0.614727
vt 0.500351 0.859872
vt 1.117015 0.825320
vt 0.482510 0.877987
vt 0.975819 0.824618
vt 0.117015 0.825320
vt 0.640266 0.346151
vt 0.821333 0.517726
vt 0.558452 0.521063
vt 0.433509 0.312607
vt 0.550161 0.567496
vt 0.236788 0.721754
vt 1.108116 0.614727
vt 1.041512 0.349913
vn -0.7002 -0.5233 0.4857
vn 0.2312 0.2277 0.9459
vn -0.5195 0.1663 0.8381
vn 0.0379 -0.9992 -0.0105
vn 0.2185 -0.7637 0.6075
vn -0.9526 0.0359 0.3022
vn -0.6077 -0.7875 0.1030
vn -0.5190 0.6081 0.6007
vn 0.1015 0.7910 0.6033
vn 0.5976 0.6311 0.4946
vn 0.7802 0.5721 0.2529
vn 0.6994 -0.6259 0.3451
vn 0.6230 -0.7364 -0.2639
vn -0.5645 -0.6600 -0.4958
vn -0.6054 0.1582 -0.7800
vn 0.1794 0.7881 -0.5888
vn -0.1413 0.8980 -0.4167
vn -0.5766 0.6402 -0.5076
vn 0.5577 0.7146 -0.4222
vn 0.8148 -0.0515 -0.5775
vn 0.8047 -0.1363 -0.5779
vn 0.1810 0.9793 -0.0909
vn 0.5985 -0.6683 -0.4418
vn 0.0037 -0.7774 -0.6289
vn -0.1854 0.7991 0.5720
vn -0.8537 0.1541 0.4975
vn 0.5663 0.8201 -0.0824
vn -0.8234 0.5674 0.0075
vn 0.1780 0.9838 0.0206
vn -0.4586 0.6895 -0.5606
vn 0.8485 -0.1569 -0.5054
vn -0.0799 -0.0000 -0.9968
vn 0.4973 0.8174 0.2909
vn 0.7429 0.0620 0.6665
vn 0.2041 0.9139 0.3508
vn 0.1679 0.7388 0.6527
usemtl cube1_auv
s 1
f 1/1/1 3/2/2 4/3/3
f 1/4/1 6/5/4 2/6/5
f 1/1/1 7/7/6 5/8/7
f 8/9/8 3/2/2 9/10/9
f 9/10/9 11/11/10 10/12/11
f 12/13/12 6/5/4 13/14/13
f 12/15/12 3/2/2 2/16/5
f 15/17/14 7/18/6 16/19/15
f 18/20/16 20/21/17 17/22/18
f 21/23/19 23/24/20 24/25/21
f 21/23/19 20/21/17 22/26/22
f 25/27/23 6/5/4 26/28/24
f 27/29/25 29/30/26 4/3/3
f 4/3/3 29/30/26 1/1/1
f 19/31/27 8/9/8 9/10/9
f 28/32/28 31/33/29 32/34/30
f 28/35/28 27/29/25 31/33/29
f 33/36/31 12/15/12 13/14/13
f 13/14/13 23/24/20 33/36/31
f 34/37/32 15/17/14 16/19/15
f 16/19/15 18/20/16 17/22/18
f 16/19/15 32/34/30 18/20/16
f 6/5/4 15/17/14 26/28/24
f 34/37/32 25/27/23 26/28/24
f 34/37/32 21/23/19 24/25/21
f 23/24/20 25/27/23 24/25/21
f 33/36/31 35/38/33 14/39/34
f 23/24/20 35/38/33 33/36/31
f 7/7/6 1/1/1 29/30/26
f 7/18/6 32/34/30 16/19/15
f 14/39/34 11/11/10 3/2/2
f 11/11/10 35/38/33 36/40/35
f 11/11/10 36/40/35 10/12/11
f 22/26/22 36/40/35 35/38/33
f 19/31/27 10/12/11 36/40/35
f 36/40/35 22/26/22 20/21/17
f 36/40/35 20/21/17 19/31/27
f 34/37/32 17/22/18 20/21/17
f 30/41/36 4/3/3 8/9/8
f 30/41/36 31/33/29 27/29/25
f 18/20/16 31/33/29 19/31/27
f 27/29/25 4/3/3 30/41/36
f 32/34/30 29/42/26 28/32/28
f 29/42/26 32/34/30 7/18/6
f 1/1/1 2/16/5 3/2/2
f 1/4/1 5/43/7 6/5/4
f 8/9/8 4/3/3 3/2/2
f 9/10/9 3/2/2 11/11/10
f 12/13/12 2/6/5 6/5/4
f 12/15/12 14/39/34 3/2/2
f 15/17/14 5/43/7 7/18/6
f 18/20/16 19/31/27 20/21/17
f 21/23/19 22/26/22 23/24/20
f 25/27/23 13/14/13 6/5/4
f 27/29/25 28/35/28 29/30/26
f 19/31/27 30/41/36 8/9/8
f 33/36/31 14/39/34 12/15/12
f 34/37/32 26/28/24 15/17/14
f 6/5/4 5/43/7 15/17/14
f 34/37/32 24/25/21 25/27/23
f 34/37/32 20/21/17 21/23/19
f 23/24/20 13/14/13 25/27/23
f 23/24/20 22/26/22 35/38/33
f 11/11/10 14/39/34 35/38/33
f 19/31/27 9/10/9 10/12/11
f 34/37/32 16/19/15 17/22/18
f 30/41/36 19/31/27 31/33/29
f 18/20/16 32/34/30 31/33/29
