# Blender v2.81 (sub 16) OBJ File: 'SpaceShip.blend'
# www.blender.org
mtllib ship.mtl.mtl
o Cube
v 0.650832 0.271315 -1.000000
v 1.240349 -0.000333 1.000000
v 0.650832 0.315481 -1.000000
v 1.240348 0.180615 0.560630
v 0.805783 -0.000334 4.284117
v 0.805782 0.180615 4.284118
v 3.119281 -0.942804 2.322021
v 3.119280 -0.761855 1.882651
v 0.650832 0.315481 -1.000000
v 1.240348 0.180615 0.560630
v 3.119280 -0.761855 1.882651
v 0.507604 0.512063 -1.000000
v 0.556329 0.986010 1.000001
v 0.218978 0.452316 3.753458
v 1.240349 -0.000333 -0.372761
v 1.240349 0.180615 -0.372760
v 3.119281 -0.942804 0.949260
v 3.119281 -0.761855 0.949260
v 1.240349 0.180615 -0.372760
v 3.119281 -0.761855 0.949260
v 0.653542 0.986010 -0.372760
v 3.457423 -0.942803 2.322021
v 3.457423 -0.761854 1.882651
v 3.457423 -0.942803 0.949260
v 3.457423 -0.761854 0.949261
v 3.119281 -0.942804 2.322021
v 3.119280 -0.761855 2.321895
v 3.457423 -0.942803 2.322021
v 3.457423 -0.761854 2.321895
v 3.182715 -0.908858 2.321997
v 3.182715 -0.795800 2.321919
v 3.393988 -0.908857 2.321997
v 3.393988 -0.795800 2.321919
v 3.182715 -0.907922 3.673004
v 3.182715 -0.794865 3.672926
v 3.393988 -0.907922 3.673004
v 3.393988 -0.794865 3.672926
v 3.242466 -0.875948 3.672982
v 3.242466 -0.826839 3.672948
v 3.334237 -0.875948 3.672982
v 3.334237 -0.826839 3.672948
v 3.242466 -0.875760 3.945883
v 3.242466 -0.826651 3.945849
v 3.334237 -0.875760 3.945883
v 3.334237 -0.826651 3.945849
v 0.960107 0.565249 0.770461
v 0.525541 0.310371 4.030690
v 0.582431 0.409363 -1.000000
v 0.960107 0.565249 -0.372760
v 0.845504 0.498033 1.630241
v 0.538940 0.845265 1.726136
v 1.125746 0.180615 1.542580
v 1.125746 -0.000333 1.866080
v -0.650832 0.271315 -1.000000
v -1.240349 -0.000333 1.000000
v 0.000000 -0.000333 1.000000
v 0.000000 0.271315 -1.000000
v -0.650832 0.315481 -1.000000
v -1.240348 0.180615 0.560630
v 0.000000 0.315481 -1.000000
v -0.805783 -0.000334 4.284117
v 0.000000 -0.000334 5.383713
v -0.805782 0.180615 4.284118
v 0.000000 0.180615 5.383713
v -3.119281 -0.942804 2.322021
v -3.119280 -0.761855 1.882651
v -0.650832 0.315481 -1.000000
v -1.240348 0.180615 0.560630
v -3.119280 -0.761855 1.882651
v -0.507604 0.512063 -1.000000
v -0.556329 0.986010 1.000001
v 0.000000 0.986010 1.000000
v 0.000000 0.512063 -1.000000
v -0.218978 0.452316 3.753458
v 0.000000 0.452316 4.853053
v -1.240349 -0.000333 -0.372761
v 0.000000 -0.000333 -0.372761
v -1.240349 0.180615 -0.372760
v -3.119281 -0.942804 0.949260
v -3.119281 -0.761855 0.949260
v -1.240349 0.180615 -0.372760
v -3.119281 -0.761855 0.949260
v -0.653542 0.986010 -0.372760
v 0.000000 0.986010 -0.372761
v -3.457423 -0.942803 2.322021
v -3.457423 -0.761854 1.882651
v -3.457423 -0.942803 0.949260
v -3.457423 -0.761854 0.949261
v -3.119281 -0.942804 2.322021
v -3.119280 -0.761855 2.321895
v -3.457423 -0.942803 2.322021
v -3.457423 -0.761854 2.321895
v -3.182715 -0.908858 2.321997
v -3.182715 -0.795800 2.321919
v -3.393988 -0.908857 2.321997
v -3.393988 -0.795800 2.321919
v -3.182715 -0.907922 3.673004
v -3.182715 -0.794865 3.672926
v -3.393988 -0.907922 3.673004
v -3.393988 -0.794865 3.672926
v -3.242466 -0.875948 3.672982
v -3.242466 -0.826839 3.672948
v -3.334237 -0.875948 3.672982
v -3.334237 -0.826839 3.672948
v -3.242466 -0.875760 3.945883
v -3.242466 -0.826651 3.945849
v -3.334237 -0.875760 3.945883
v -3.334237 -0.826651 3.945849
v 0.000000 0.409363 -1.000000
v -0.960107 0.565249 0.770461
v -0.525541 0.310371 4.030690
v -0.582431 0.409363 -1.000000
v 0.000000 0.310371 5.130285
v -0.960107 0.565249 -0.372760
v -0.845504 0.498033 1.630241
v -0.538940 0.845265 1.726136
v 0.000000 0.948491 1.700656
v 0.000000 -0.000333 2.156063
v -1.125746 0.180615 1.542580
v -1.125746 -0.000333 1.866080
vt 0.684501 0.901744
vt 0.507995 0.686703
vt 0.507995 0.901744
vt 0.819169 0.684806
vt 0.908428 0.676475
vt 0.819169 0.750718
vt 0.684501 0.596209
vt 0.951881 0.476917
vt 0.951881 0.448572
vt 0.507995 0.660387
vt 0.580229 0.676475
vt 0.590877 0.660387
vt 0.156477 0.624554
vt 0.000000 0.596209
vt 0.156477 0.596209
vt 0.600611 0.638762
vt 0.507995 0.645681
vt 0.600611 0.645681
vt 0.507995 0.505607
vt 0.622661 0.172250
vt 0.507995 0.000000
vt 0.500573 0.596209
vt 0.951881 0.476917
vt 1.000000 0.448572
vt 0.684501 0.686703
vt 0.951881 0.548437
vt 0.684501 0.755529
vt 0.684501 0.755529
vt 0.951881 0.694651
vt 0.684501 0.901744
vt 0.908428 0.638762
vt 0.819169 0.624554
vt 0.819169 0.596209
vt 0.684501 0.901744
vt 0.951881 0.548437
vt 0.507995 0.901744
vt 0.587162 0.686703
vt 0.600996 0.901744
vt 0.534134 0.674277
vt 0.623820 0.750718
vt 0.520488 0.728671
vt 0.600611 1.000000
vt 0.507995 1.000000
vt 0.656484 0.684806
vt 0.951881 0.694651
vt 0.951881 0.479610
vt 0.600611 1.000000
vt 0.600611 1.000000
vt 0.580229 1.000000
vt 0.631041 0.448572
vt 0.498215 0.476917
vt 0.435691 0.448572
vt 1.000000 0.694651
vt 1.000000 0.479610
vt 1.000000 0.479630
vt 1.000000 0.548437
vt 1.000000 0.694651
vt 0.951881 0.694651
vt 0.951881 0.476917
vt 0.990973 0.471600
vt 1.000000 0.476917
vt 0.498215 0.476917
vt 0.435691 0.448572
vt 0.435709 0.476917
vt 0.435709 0.476917
vt 0.435691 0.448572
vt 1.000000 0.479610
vt 0.951881 0.479610
vt 0.960908 0.479626
vt 0.990973 0.267992
vt 0.990973 0.479626
vt 0.951881 0.448572
vt 0.960908 0.471600
vt 0.990973 0.453890
vt 1.000000 0.448572
vt 0.960908 0.453890
vt 0.990973 0.471746
vt 0.969411 0.466738
vt 0.982470 0.466738
vt 0.990973 0.479614
vt 0.960908 0.267980
vt 0.960908 0.479614
vt 0.435706 0.471600
vt 0.243441 0.454036
vt 0.243452 0.471746
vt 0.435706 0.471600
vt 0.243441 0.454036
vt 0.435694 0.453890
vt 0.969411 0.267989
vt 0.982470 0.225239
vt 0.982470 0.267989
vt 0.960908 0.454036
vt 0.960908 0.471746
vt 0.990973 0.454036
vt 0.982470 0.459045
vt 0.969411 0.459045
vt 0.969411 0.466767
vt 0.982470 0.459074
vt 0.982470 0.466767
vt 0.243449 0.466738
vt 0.204609 0.459074
vt 0.243444 0.459045
vt 0.969411 0.267984
vt 0.982470 0.225234
vt 0.969411 0.225234
vt 0.243444 0.459045
vt 0.204614 0.466767
vt 0.243449 0.466738
vt 0.908428 0.645681
vt 0.622661 0.172250
vt 0.507995 0.039699
vt 0.507995 0.000000
vt 0.546609 0.624554
vt 0.686344 0.624554
vt 0.623820 0.596209
vt 0.668193 0.601708
vt 0.582781 0.211949
vt 0.668193 0.551032
vt 0.507995 0.576946
vt 0.584688 0.572954
vt 0.331488 0.901744
vt 0.331488 0.686703
vt 0.819169 0.684806
vt 0.908428 0.676475
vt 0.908428 0.660387
vt 0.064108 0.476917
vt 0.331488 0.596209
vt 0.064108 0.448572
vt 0.435760 0.676475
vt 0.425112 0.660387
vt 0.156477 0.624554
vt 0.156477 0.596209
vt 0.415379 0.638762
vt 0.415379 0.645681
vt 0.393328 0.172250
vt 0.347796 0.551032
vt 0.500573 0.596209
vt 0.546609 0.624554
vt 0.015989 0.448572
vt 0.064108 0.476917
vt 0.064108 0.548437
vt 0.331488 0.755529
vt 0.064108 0.694651
vt 0.331488 0.755529
vt 0.331488 0.901744
vt 0.908428 0.638762
vt 0.819169 0.624554
vt 0.908428 0.645681
vt 0.331488 0.901744
vt 0.064108 0.548437
vt 0.428827 0.686703
vt 0.414993 0.901744
vt 0.534134 0.674277
vt 0.623820 0.750718
vt 0.656484 0.684806
vt 0.415379 1.000000
vt 0.819169 0.750718
vt 0.064108 0.694651
vt 0.064108 0.694651
vt 0.415379 1.000000
vt 0.435760 1.000000
vt 0.507995 1.000000
vt 0.631041 0.448572
vt 0.498215 0.476917
vt 0.631040 0.476917
vt 0.064108 0.479610
vt 0.015989 0.694651
vt 0.015989 0.479630
vt 0.015989 0.548437
vt 0.015989 0.694651
vt 0.025016 0.471600
vt 0.064108 0.476917
vt 0.015989 0.476917
vt 0.498215 0.476917
vt 0.435691 0.448572
vt 0.435691 0.448572
vt 0.435691 0.448572
vt 0.435709 0.476917
vt 0.015989 0.479610
vt 0.015989 0.479610
vt 0.025016 0.267992
vt 0.055081 0.479626
vt 0.025016 0.479626
vt 0.055081 0.471600
vt 0.064108 0.448572
vt 0.025016 0.453890
vt 0.015989 0.448572
vt 0.025016 0.471746
vt 0.046579 0.466738
vt 0.055081 0.471746
vt 0.055081 0.267980
vt 0.025016 0.479614
vt 0.055081 0.479614
vt 0.435706 0.471600
vt 0.243441 0.454036
vt 0.435694 0.453890
vt 0.243441 0.454036
vt 0.435706 0.471600
vt 0.435694 0.453890
vt 0.033519 0.267989
vt 0.046579 0.225239
vt 0.046579 0.267989
vt 0.055081 0.454036
vt 0.025016 0.454036
vt 0.033519 0.466738
vt 0.046579 0.459045
vt 0.046579 0.466767
vt 0.033519 0.459074
vt 0.046579 0.459074
vt 0.204609 0.459074
vt 0.243449 0.466738
vt 0.243444 0.459045
vt 0.046579 0.267984
vt 0.033519 0.225234
vt 0.033519 0.267984
vt 0.204614 0.466767
vt 0.243444 0.459045
vt 0.243449 0.466738
vt 0.393329 0.172250
vt 0.686344 0.624554
vt 0.623820 0.596209
vt 0.433208 0.211949
vt 0.347796 0.601708
vt 0.507995 0.686703
vt 0.908428 0.660387
vt 0.684501 0.624554
vt 0.507995 0.676475
vt 0.000000 0.624554
vt 0.507995 0.638762
vt 1.000000 0.476917
vt 0.631040 0.476917
vt 0.951881 0.479630
vt 0.435691 0.448572
vt 0.960908 0.267992
vt 0.990973 0.267980
vt 0.435694 0.453890
vt 0.243452 0.471746
vt 0.969411 0.225239
vt 0.969411 0.459074
vt 0.204614 0.466767
vt 0.982470 0.267984
vt 0.204609 0.459074
vt 0.628313 0.587976
vt 0.331488 0.624554
vt 0.015989 0.476917
vt 0.819169 0.596209
vt 0.520488 0.728671
vt 0.415379 1.000000
vt 0.064108 0.479630
vt 0.435709 0.476917
vt 0.435691 0.448572
vt 0.064108 0.479610
vt 0.055081 0.267992
vt 0.055081 0.453890
vt 0.025016 0.267980
vt 0.243452 0.471746
vt 0.243452 0.471746
vt 0.033519 0.225239
vt 0.033519 0.459045
vt 0.033519 0.466767
vt 0.204614 0.466767
vt 0.046579 0.225234
vt 0.204609 0.459074
vt 0.387676 0.587976
vt 0.431301 0.572954
vt 0.539156 0.255377
vt 0.507995 0.083127
vt 0.476833 0.255377
vn 0.0000 -1.0000 0.0000
vn 0.6829 0.4976 -0.5349
vn 0.5754 0.0000 -0.8178
vn 0.0000 0.0000 -1.0000
vn 0.8066 0.0000 0.5911
vn 0.9914 0.0000 0.1312
vn 0.1922 0.9074 0.3737
vn 0.4484 0.8939 0.0000
vn 0.7287 0.0000 -0.6849
vn 0.0000 0.0000 1.0000
vn 0.0000 1.0000 -0.0000
vn 0.7611 0.6331 0.1409
vn 0.0000 -0.9176 -0.3974
vn 0.7346 0.6765 0.0520
vn -0.4484 -0.8939 0.0000
vn 0.0000 0.7978 -0.6029
vn 1.0000 0.0000 0.0000
vn 0.0000 0.0007 1.0000
vn -1.0000 -0.0000 0.0000
vn -0.0000 1.0000 -0.0007
vn 0.0000 -1.0000 0.0007
vn 0.5281 0.7559 0.3870
vn 0.7614 0.6306 0.1508
vn 0.8082 0.5889 0.0000
vn 0.9652 0.2283 0.1277
vn 0.3859 0.9214 0.0450
vn 0.1759 0.9656 0.1914
vn -0.6829 0.4976 -0.5349
vn -0.5754 0.0000 -0.8178
vn -0.8066 0.0000 0.5911
vn -0.9726 0.2029 0.1135
vn -0.1922 0.9074 0.3737
vn -0.4484 0.8939 0.0000
vn -0.7287 0.0000 -0.6849
vn -0.7530 0.6406 0.1505
vn -0.8082 0.5889 0.0000
vn 0.4484 -0.8939 0.0000
vn -0.5281 0.7559 0.3870
vn -0.8288 0.5511 0.0967
vn -0.9561 0.2710 0.1116
vn -0.3859 0.9214 0.0450
vn 0.0000 0.9986 0.0535
vn 0.9726 0.2029 0.1135
vn 0.7530 0.6406 0.1505
vn 0.3043 0.9414 0.1455
vn 0.8288 0.5511 0.0967
vn 0.9561 0.2710 0.1116
vn -0.9914 0.0000 0.1312
vn -0.7611 0.6331 0.1409
vn -0.7346 0.6765 0.0520
vn -0.3043 0.9414 0.1455
vn -0.7614 0.6306 0.1508
vn -0.9652 0.2283 0.1277
vn -0.1759 0.9656 0.1914
vn 0.1740 0.9613 0.2138
vn 0.6901 0.6442 0.3298
vn 0.3282 0.9373 0.1170
vn -0.1740 0.9613 0.2138
vn -0.6901 0.6442 0.3298
vn -0.3282 0.9373 0.1170
vn 0.6154 0.7786 0.1226
vn 0.3643 0.9285 0.0725
vn 0.7598 0.6053 0.2372
vn -0.6154 0.7786 0.1226
vn -0.3643 0.9285 0.0725
vn -0.7598 0.6053 0.2372
usemtl Base
s off
f 15/1/1 56/2/1 77/3/1
f 49/4/2 12/5/2 21/6/2
f 15/7/3 20/8/3 17/9/3
f 109/10/4 12/11/4 48/12/4
f 6/13/5 62/14/5 5/15/5
f 1/16/4 60/17/4 3/18/4
f 118/19/1 5/20/1 62/21/1
f 53/22/6 6/13/6 5/15/6
f 18/23/4 24/24/4 17/9/4
f 2/25/7 8/26/7 4/27/7
f 10/28/8 20/29/8 19/30/8
f 1/31/9 16/32/9 15/33/9
f 16/34/10 10/28/10 19/30/10
f 4/27/10 11/35/10 10/28/10
f 84/36/11 13/37/11 21/38/11
f 50/39/12 13/40/12 51/41/12
f 1/42/13 77/3/13 57/43/13
f 46/44/14 21/6/14 13/40/14
f 2/25/15 17/45/15 7/46/15
f 8/26/10 20/29/10 11/35/10
f 3/47/10 19/30/10 9/48/10
f 12/49/16 84/36/16 21/38/16
f 24/50/17 23/51/17 22/52/17
f 7/46/1 24/53/1 22/54/1
f 8/26/11 29/55/11 23/56/11
f 8/26/11 25/57/11 18/58/11
f 27/59/18 33/60/18 29/61/18
f 8/62/19 26/63/19 27/64/19
f 22/52/10 29/65/10 28/66/10
f 7/46/10 28/67/10 26/68/10
f 31/69/20 37/70/20 33/71/20
f 26/72/18 31/73/18 27/59/18
f 29/61/18 32/74/18 28/75/18
f 26/72/18 32/74/18 30/76/18
f 37/77/18 39/78/18 41/79/18
f 32/80/21 34/81/21 30/82/21
f 31/83/19 34/84/19 35/85/19
f 33/86/17 36/87/17 32/88/17
f 39/89/20 45/90/20 41/91/20
f 34/92/18 39/78/18 35/93/18
f 36/94/18 41/79/18 40/95/18
f 36/94/18 38/96/18 34/92/18
f 43/97/18 44/98/18 45/99/18
f 41/100/17 44/101/17 40/102/17
f 38/103/21 44/104/21 42/105/21
f 38/106/19 43/107/19 39/108/19
f 3/109/2 49/4/2 16/32/2
f 60/17/4 48/12/4 3/18/4
f 6/110/22 113/111/22 64/112/22
f 52/113/23 46/44/23 50/39/23
f 4/114/24 49/4/24 46/44/24
f 2/115/25 52/113/25 53/22/25
f 52/116/26 47/117/26 6/110/26
f 56/2/1 53/118/1 118/19/1
f 13/37/27 117/119/27 51/120/27
f 76/121/1 56/2/1 55/122/1
f 114/123/28 70/124/28 112/125/28
f 82/126/29 76/127/29 79/128/29
f 70/129/4 109/10/4 112/130/4
f 62/14/30 63/131/30 61/132/30
f 60/17/4 54/133/4 58/134/4
f 118/19/1 61/135/1 120/136/1
f 120/137/31 63/131/31 119/138/31
f 87/139/4 80/140/4 79/128/4
f 66/141/32 55/122/32 59/142/32
f 82/143/33 68/144/33 81/145/33
f 54/146/34 78/147/34 58/148/34
f 78/149/10 68/144/10 59/142/10
f 59/142/10 69/150/10 66/141/10
f 71/151/11 84/36/11 83/152/11
f 115/153/35 71/154/35 110/155/35
f 54/156/13 77/3/13 76/121/13
f 110/155/36 83/157/36 114/123/36
f 55/122/37 79/158/37 76/121/37
f 66/141/10 82/143/10 80/159/10
f 58/160/10 81/145/10 78/149/10
f 70/161/16 84/36/16 73/162/16
f 87/163/19 86/164/19 88/165/19
f 65/166/1 87/167/1 79/158/1
f 92/168/11 66/141/11 86/169/11
f 88/170/11 66/141/11 80/159/11
f 96/171/18 90/172/18 92/173/18
f 66/174/10 89/175/10 65/176/10
f 85/177/19 92/178/19 86/164/19
f 65/166/10 91/179/10 85/180/10
f 100/181/20 94/182/20 96/183/20
f 94/184/18 89/185/18 90/172/18
f 95/186/18 92/173/18 91/187/18
f 89/185/18 95/186/18 91/187/18
f 100/188/18 102/189/18 98/190/18
f 97/191/21 95/192/21 93/193/21
f 94/194/17 97/195/17 93/196/17
f 99/197/19 96/198/19 95/199/19
f 104/200/20 106/201/20 102/202/20
f 102/189/18 97/203/18 98/190/18
f 99/204/18 104/205/18 100/188/18
f 101/206/18 99/204/18 97/203/18
f 106/207/18 107/208/18 105/209/18
f 107/210/19 104/211/19 103/212/19
f 101/213/21 107/214/21 103/215/21
f 106/216/17 101/217/17 102/218/17
f 114/123/28 58/148/28 78/147/28
f 112/130/4 60/17/4 58/134/4
f 113/111/38 63/219/38 64/112/38
f 119/138/39 110/155/39 59/220/39
f 59/220/36 114/123/36 78/147/36
f 55/221/40 119/138/40 59/220/40
f 111/222/41 119/223/41 63/219/41
f 56/2/1 120/136/1 55/122/1
f 71/151/42 117/119/42 72/224/42
f 15/1/1 2/25/1 56/2/1
f 49/4/2 48/225/2 12/5/2
f 15/7/3 19/226/3 20/8/3
f 109/10/4 73/227/4 12/11/4
f 6/13/5 64/228/5 62/14/5
f 1/16/4 57/229/4 60/17/4
f 118/19/1 53/118/1 5/20/1
f 53/22/43 52/113/43 6/13/43
f 18/23/4 25/230/4 24/24/4
f 2/25/7 7/46/7 8/26/7
f 10/28/8 11/35/8 20/29/8
f 1/31/9 3/109/9 16/32/9
f 16/34/10 4/27/10 10/28/10
f 4/27/10 8/26/10 11/35/10
f 84/36/11 72/224/11 13/37/11
f 50/39/44 46/44/44 13/40/44
f 1/42/13 15/1/13 77/3/13
f 46/44/24 49/4/24 21/6/24
f 2/25/15 15/1/15 17/45/15
f 8/26/10 18/58/10 20/29/10
f 3/47/10 16/34/10 19/30/10
f 12/49/16 73/162/16 84/36/16
f 24/50/17 25/231/17 23/51/17
f 7/46/1 17/45/1 24/53/1
f 8/26/11 27/232/11 29/55/11
f 8/26/11 23/56/11 25/57/11
f 27/59/18 31/73/18 33/60/18
f 8/62/10 7/233/10 26/63/10
f 22/52/17 23/51/17 29/65/17
f 7/46/10 22/54/10 28/67/10
f 31/69/20 35/234/20 37/70/20
f 26/72/18 30/76/18 31/73/18
f 29/61/18 33/60/18 32/74/18
f 26/72/18 28/75/18 32/74/18
f 37/77/18 35/93/18 39/78/18
f 32/80/21 36/235/21 34/81/21
f 31/83/19 30/236/19 34/84/19
f 33/86/17 37/237/17 36/87/17
f 39/89/20 43/238/20 45/90/20
f 34/92/18 38/96/18 39/78/18
f 36/94/18 37/77/18 41/79/18
f 36/94/18 40/95/18 38/96/18
f 43/97/18 42/239/18 44/98/18
f 41/100/17 45/240/17 44/101/17
f 38/103/21 40/241/21 44/104/21
f 38/106/19 42/242/19 43/107/19
f 3/109/2 48/225/2 49/4/2
f 60/17/4 109/10/4 48/12/4
f 6/110/45 47/117/45 113/111/45
f 52/113/46 4/114/46 46/44/46
f 4/114/24 16/32/24 49/4/24
f 2/115/47 4/114/47 52/113/47
f 52/116/23 50/243/23 47/117/23
f 56/2/1 2/25/1 53/118/1
f 13/37/42 72/224/42 117/119/42
f 76/121/1 77/3/1 56/2/1
f 114/123/28 83/157/28 70/124/28
f 82/126/29 81/244/29 76/127/29
f 70/129/4 73/227/4 109/10/4
f 62/14/30 64/228/30 63/131/30
f 60/17/4 57/229/4 54/133/4
f 118/19/1 62/21/1 61/135/1
f 120/137/48 61/132/48 63/131/48
f 87/139/4 88/245/4 80/140/4
f 66/141/32 65/166/32 55/122/32
f 82/143/33 69/150/33 68/144/33
f 54/146/34 76/246/34 78/147/34
f 78/149/10 81/145/10 68/144/10
f 59/142/10 68/144/10 69/150/10
f 71/151/11 72/224/11 84/36/11
f 115/153/49 116/247/49 71/154/49
f 54/156/13 57/43/13 77/3/13
f 110/155/50 71/154/50 83/157/50
f 55/122/37 65/166/37 79/158/37
f 66/141/10 69/150/10 82/143/10
f 58/160/10 67/248/10 81/145/10
f 70/161/16 83/152/16 84/36/16
f 87/163/19 85/177/19 86/164/19
f 65/166/1 85/180/1 87/167/1
f 92/168/11 90/249/11 66/141/11
f 88/170/11 86/169/11 66/141/11
f 96/171/18 94/184/18 90/172/18
f 66/174/17 90/250/17 89/175/17
f 85/177/10 91/251/10 92/178/10
f 65/166/10 89/252/10 91/179/10
f 100/181/20 98/253/20 94/182/20
f 94/184/18 93/254/18 89/185/18
f 95/186/18 96/171/18 92/173/18
f 89/185/18 93/254/18 95/186/18
f 100/188/18 104/205/18 102/189/18
f 97/191/21 99/255/21 95/192/21
f 94/194/17 98/256/17 97/195/17
f 99/197/19 100/257/19 96/198/19
f 104/200/20 108/258/20 106/201/20
f 102/189/18 101/206/18 97/203/18
f 99/204/18 103/259/18 104/205/18
f 101/206/18 103/259/18 99/204/18
f 106/207/18 108/260/18 107/208/18
f 107/210/19 108/261/19 104/211/19
f 101/213/21 105/262/21 107/214/21
f 106/216/17 105/263/17 101/217/17
f 114/123/28 112/125/28 58/148/28
f 112/130/4 109/10/4 60/17/4
f 113/111/51 111/222/51 63/219/51
f 119/138/52 115/153/52 110/155/52
f 59/220/36 110/155/36 114/123/36
f 55/221/53 120/137/53 119/138/53
f 111/222/52 115/264/52 119/223/52
f 56/2/1 118/19/1 120/136/1
f 71/151/54 116/265/54 117/119/54
usemtl Black
f 117/119/55 14/266/55 51/120/55
f 47/117/56 75/267/56 113/111/56
f 50/243/57 14/266/57 47/117/57
f 74/268/58 117/119/58 116/265/58
f 75/267/59 111/222/59 113/111/59
f 74/268/60 115/264/60 111/222/60
f 117/119/61 75/267/61 14/266/61
f 47/117/62 14/266/62 75/267/62
f 50/243/63 51/120/63 14/266/63
f 74/268/64 75/267/64 117/119/64
f 75/267/65 74/268/65 111/222/65
f 74/268/66 116/265/66 115/264/66
